A conversation with Steve Jobs as he was running NeXT, the company he had founded after leaving Apple.
 
http://www.imdb.com/title/tt2104994/

DVDInfo:

Title: Stiv.Dzhobs.2012.P.DVD5
 Size: 4.06 Gb ( 4 254 232,00 KBytes ) - DVD-5
 Enabled regions: 1, 2, 3, 4, 5, 6, 7, 8

 VTS_01 :
 Play Length: 00:00:01+01:06:32+00:00:01
 Video: PAL 16:9 (720x576) VBR, Auto Letterboxed
 Audio:
 Russian, AC3, 2/0 (L,R) ch, 384 kbps, Delay 0 mSec
 English, AC3, 2/0 (L,R) ch, 384 kbps, Delay 0 mSec

 Subtitles:
 Russian

 VTS_02 :
 Play Length: 00:00:01+00:00:05+00:00:13
 Video: PAL 16:9 (720x576) VBR, Auto Letterboxed
 Audio:
 Russian (Dolby AC3, 6 ch)

 VTS_03 :
 Play Length: 00:00:01+00:00:24+00:00:01
 Video: PAL 16:9 (720x576) VBR, Auto Letterboxed
 Audio:
 Russian (Dolby AC3, 2 ch)

 VTS_04 :
 Play Length: 00:00:01+00:00:08+00:00:01
 Video: PAL 16:9 (720x576) VBR, Auto Letterboxed
 Audio:
 Russian (Dolby AC3, 2 ch)

MediaInfo:

General
Complete name                            : F:Stiv.Dzhobs.2012.P.DVD5VIDEO_TSVTS_01_1.VOB
Format                                   : MPEG-PS
File size                                : 1 024 MiB
Duration                                 : 16mn 55s
Overall bit rate mode                    : Variable
Overall bit rate                         : 8 455 Kbps

Video
ID                                       : 224 (0xE0)
Format                                   : MPEG Video
Format version                           : Version 2
Format profile                           : Main@Main
Format settings, BVOP                    : Yes
Format settings, Matrix                  : Custom
Format settings, GOP                     : M=3, N=15
Duration                                 : 16mn 55s
Bit rate mode                            : Variable
Bit rate                                 : 7 519 Kbps
Width                                    : 720 pixels
Height                                   : 576 pixels
Display aspect ratio                     : 16:9
Frame rate                               : 25.000 fps
Standard                                 : PAL
Color space                              : YUV
Chroma subsampling                       : 4:2:0
Bit depth                                : 8 bits
Scan type                                : Interlaced
Compression mode                         : Lossy
Bits/(Pixel*Frame)                       : 0.725
Stream size                              : 911 MiB (89%)

Audio #1
ID                                       : 189 (0xBD)-128 (0x80)
Format                                   : AC-3
Format/Info                              : Audio Coding 3
Mode extension                           : CM (complete main)
Format settings, Endianness              : Big
Muxing mode                              : DVD-Video
Duration                                 : 16mn 55s
Bit rate mode                            : Constant
Bit rate                                 : 384 Kbps
Channel(s)                               : 2 channels
Channel positions                        : Front: L R
Sampling rate                            : 48.0 KHz
Bit depth                                : 16 bits
Compression mode                         : Lossy
Stream size                              : 46.5 MiB (5%)

Audio #2
ID                                       : 189 (0xBD)-129 (0x81)
Format                                   : AC-3
Format/Info                              : Audio Coding 3
Mode extension                           : CM (complete main)
Format settings, Endianness              : Big
Muxing mode                              : DVD-Video
Duration                                 : 16mn 55s
Bit rate mode                            : Constant
Bit rate                                 : 384 Kbps
Channel(s)                               : 2 channels
Channel positions                        : Front: L R
Sampling rate                            : 48.0 KHz
Bit depth                                : 16 bits
Compression mode                         : Lossy
Stream size                              : 46.5 MiB (5%)

Text
ID                                       : 189 (0xBD)-32 (0x20)
Format                                   : RLE
Format/Info                              : Run-length encoding
Muxing mode                              : DVD-Video
Duration                                 : 16mn 55s

Menu

